<?xml version="1.0" encoding="utf-8"?>
<!-- Generator: Adobe Illustrator 25.4.1, SVG Export Plug-In . SVG Version: 6.00 Build 0)  -->
<svg version="1.1" id="Layer_1" xmlns="http://www.w3.org/2000/svg" xmlns:xlink="http://www.w3.org/1999/xlink" x="0px" y="0px"
	 viewBox="0 0 78.3 83.9" style="enable-background:new 0 0 78.3 83.9;" xml:space="preserve">
<path d="M39.2,75.3C20.7,75.3,5.8,60.4,5.8,42S20.7,8.6,39.2,8.6S72.5,23.5,72.5,42l0,0C72.5,60.4,57.6,75.3,39.2,75.3z M39.2,13.1
	c-16,0-28.9,13-28.9,28.9s13,28.9,28.9,28.9c16,0,28.9-12.9,28.9-28.9S55.1,13.1,39.2,13.1z"/>
<g>
	<rect x="16.9" y="35.8" transform="matrix(0.7071 -0.7071 0.7071 0.7071 -18.2976 33.3559)" width="28.5" height="6"/>
	<rect x="44.2" y="24.5" transform="matrix(0.7071 -0.7071 0.7071 0.7071 -13.591 44.7186)" width="6" height="28.5"/>
</g>
</svg>
