<?xml version="1.0" encoding="utf-8"?>
<!-- Generator: Adobe Illustrator 25.4.1, SVG Export Plug-In . SVG Version: 6.00 Build 0)  -->
<svg version="1.1" id="Layer_1" xmlns="http://www.w3.org/2000/svg" xmlns:xlink="http://www.w3.org/1999/xlink" x="0px" y="0px"
	 viewBox="0 0 78.3 83.9" style="enable-background:new 0 0 78.3 83.9;" xml:space="preserve">
<g>
	<path d="M45.5,82.5H13.6c-5,0-8.8-3.8-8.8-8.8v-3.5c0-11.6,0-23.3,0-34.9c0-4.9,3.8-8.7,8.6-8.7h2.8c2.1,0,4.2,0,6.3,0
		c0.8-0.8,1.6-1.7,2.4-2.5c0.8-0.9,1.6-1.7,2.4-2.6c0.7-0.8,1.9-1.3,2.9-1.3c5.9,0,11.9,0,17.9,0c1,0,2.2,0.5,2.9,1.3
		c0.8,0.9,1.6,1.7,2.4,2.6c0.8,0.8,1.5,1.7,2.3,2.5c2.1,0,4.3,0,6.4,0h2.8c4.8,0,8.7,3.8,8.7,8.7c0,12.8,0,25.7,0,38.5
		c0,4.9-3.8,8.7-8.7,8.7L45.5,82.5z M13.5,31.2c-2.4,0-4.2,1.8-4.2,4.2c0,11.6,0,23.3,0,34.9v3.5c0,2.6,1.7,4.3,4.3,4.3h31.9h19.2
		c2.5,0,4.2-1.8,4.2-4.2c0-12.8,0-25.7,0-38.5c0-2.4-1.8-4.2-4.2-4.2H62c-2.2,0-4.4,0-6.6,0c-1,0-2.2-0.5-2.9-1.3
		c-0.9-0.9-1.7-1.8-2.5-2.7c-0.7-0.8-1.5-1.6-2.2-2.4c-5.8,0-11.6,0-17.4,0c-0.7,0.8-1.5,1.6-2.2,2.4c-0.8,0.9-1.7,1.8-2.5,2.7
		c-0.7,0.8-1.9,1.3-2.9,1.3c-2.2,0-4.4,0-6.5,0L13.5,31.2z M30.2,24.8L30.2,24.8L30.2,24.8z M48.1,24.8L48.1,24.8L48.1,24.8z
		 M47.7,24.6L47.7,24.6L47.7,24.6z M39.2,72.8L39.2,72.8c-10.1,0-18.3-8.2-18.3-18.2c0-10.1,8.2-18.3,18.3-18.3l0,0
		c4.9,0,9.5,1.9,12.9,5.4c3.4,3.5,5.3,8.1,5.3,13c0,4.8-1.9,9.3-5.4,12.8C48.6,70.9,44,72.8,39.2,72.8z M39.2,40.8
		c-7.6,0-13.8,6.2-13.8,13.8c0,7.5,6.2,13.7,13.8,13.7l0,0c3.6,0,7-1.4,9.6-4c2.6-2.6,4.1-6,4.1-9.6c0-3.7-1.4-7.2-4-9.8
		C46.3,42.3,42.9,40.8,39.2,40.8L39.2,40.8z"/>
	<path d="M39.1,64.6L39.1,64.6c-2.7,0-5.2-1-7.1-2.9s-2.9-4.4-2.9-7.1c0-2.7,1-5.2,2.9-7.1c1.9-1.9,4.4-2.9,7.1-2.9l0,0
		c2.7,0,5.2,1,7.1,2.9c1.9,1.9,2.9,4.4,2.9,7.1C49.1,60.2,44.7,64.6,39.1,64.6z M39.2,49.1c-1.5,0-2.9,0.6-3.9,1.6s-1.6,2.4-1.6,3.9
		s0.6,2.9,1.6,3.9s2.4,1.6,3.9,1.6l0,0l0,0c3.1,0,5.5-2.4,5.5-5.4c0-1.5-0.6-2.9-1.6-4C42.1,49.7,40.7,49.1,39.2,49.1L39.2,49.1z"/>
</g>
</svg>
