<?xml version="1.0" encoding="utf-8"?>
<!-- Generator: Adobe Illustrator 25.4.1, SVG Export Plug-In . SVG Version: 6.00 Build 0)  -->
<svg version="1.1" id="Layer_1" xmlns="http://www.w3.org/2000/svg" xmlns:xlink="http://www.w3.org/1999/xlink" x="0px" y="0px"
	 viewBox="0 0 78.3 83.9" style="enable-background:new 0 0 78.3 83.9;" xml:space="preserve">
<g id="blk">
	<path d="M39.2,83C20.7,83,5.8,68,5.8,49.6c0-18.4,14.9-33.4,33.4-33.4s33.4,14.9,33.4,33.4c0,0,0,0,0,0C72.5,68.1,57.6,83,39.2,83z
		 M39.2,20.7c-16,0-28.9,13-28.9,28.9s13,28.9,28.9,28.9c16,0,28.9-12.9,28.9-28.9C68.1,33.7,55.1,20.7,39.2,20.7z"/>
	<path d="M28.7,70.1v-41l31.5,20.5L28.7,70.1z M33.2,37.3v24.6l18.9-12.3L33.2,37.3z"/>
</g>
</svg>
